<svg width="512" height="512" viewBox="0 0 512 512" fill="none" xmlns="http://www.w3.org/2000/svg">
  <rect width="512" height="512" rx="128" fill="#090909"/>
  <circle cx="256" cy="256" r="170" fill="#ff7a1a"/>
  <circle cx="256" cy="256" r="126" fill="#111111"/>
  <path d="M182 178H330C344.359 178 356 189.641 356 204V308C356 322.359 344.359 334 330 334H182C167.641 334 156 322.359 156 308V204C156 189.641 167.641 178 182 178Z" fill="#f5f0de"/>
  <path d="M176 198H336V226H176V198Z" fill="#ff7a1a"/>
  <path d="M176 238H336V266H176V238Z" fill="#111111"/>
  <path d="M176 278H336V306H176V278Z" fill="#111111"/>
  <path d="M218 214L246 170L274 214H218Z" fill="#111111"/>
  <path d="M228 214H284V236H228V214Z" fill="#ff7a1a"/>
  <path d="M224 250C224 232.327 238.327 218 256 218C273.673 218 288 232.327 288 250V284C288 301.673 273.673 316 256 316C238.327 316 224 301.673 224 284V250Z" fill="#090909"/>
  <path d="M247 245H266C272.627 245 278 250.373 278 257V263C278 269.627 272.627 275 266 275H247V245Z" fill="#ff7a1a"/>
</svg>
